<?xml version="1.0" encoding="UTF-8"?>
<svg width="398px" height="104px" viewBox="0 0 398 104" version="1.1" xmlns="http://www.w3.org/2000/svg" xmlns:xlink="http://www.w3.org/1999/xlink">
    <!-- Generator: Sketch 53.2 (72643) - https://sketchapp.com -->
    <title>Logo/Dark</title>
    <desc>Created with Sketch.</desc>
    <g id="Logo/Dark" stroke="none" stroke-width="1" fill="none" fill-rule="evenodd">
        <g id="Group" transform="translate(0.000274, -0.000200)">
            <path d="M69.1593354,1.74900008 C71.4796169,4.08100008 71.4796169,7.86100008 69.1593354,10.1920001 L51.4477877,27.9940001 L33.735245,10.1920001 C31.4149636,7.86100008 31.4149636,4.08100008 33.735245,1.74900008 C36.0555264,-0.58199992 39.8165314,-0.58299992 42.1358179,1.74900008 L51.4457978,11.1060001 L60.7577676,1.74900008 C63.078049,-0.58399992 66.840049,-0.58199992 69.1593354,1.74900008 M1.73983796,69.5090001 C4.06011937,71.8400001 7.82112439,71.8400001 10.1414058,69.5090001 L27.8529535,51.7070001 L10.1414058,33.9060001 C7.82112439,31.5740001 4.06011937,31.5740001 1.73983796,33.9060001 C-0.579448472,36.2380001 -0.579448472,40.0180001 1.73983796,42.3490001 L11.0508128,51.7060001 L1.73983796,61.0640001 C-0.580443447,63.3960001 -0.579448472,67.1770001 1.73983796,69.5090001 M33.7123606,101.642 C31.3920792,99.3100001 31.3920792,95.5300001 33.7123606,93.1990001 L51.4229133,75.3970001 L69.1354561,93.1990001 C71.4557375,95.5300001 71.4557375,99.3100001 69.1354561,101.642 C66.8161696,103.973 63.0551646,103.973 60.7348832,101.642 L51.4249033,92.2840001 L42.1139284,101.643 C39.793647,103.974 36.031647,103.973 33.7123606,101.642 M101.130863,33.8820001 C98.8105817,31.5510001 95.0495767,31.5510001 92.7302902,33.8820001 L75.0177475,51.6830001 L92.7302902,69.4850001 C95.0495767,71.8160001 98.8105817,71.8160001 101.130863,69.4840001 C103.45015,67.1530001 103.45015,63.3730001 101.130863,61.0410001 L91.8198882,51.6840001 L101.131858,42.3260001 C103.452139,39.9950001 103.45015,36.2130001 101.130863,33.8820001" id="Fill-1" fill="#0C1F60"></path>
            <path d="M83.0826158,9.19330008 C85.4028973,11.5253001 85.4028973,15.3043001 83.0826158,17.6363001 L51.4473897,49.4313001 L19.8121636,17.6363001 C17.4928772,15.3043001 17.4928772,11.5253001 19.8121636,9.19330008 C22.132445,6.86130008 25.89345,6.86130008 28.2127365,9.19330008 L51.4473897,32.5443001 L74.681048,9.19230008 C77.0013294,6.86030008 80.7623344,6.86130008 83.0826158,9.19330008" id="Path" fill="#7C8386"></path>
            <path d="M9.14702791,83.5023001 C11.4663143,85.8343001 15.2273194,85.8343001 17.5476008,83.5023001 L49.1838219,51.7073001 L17.5476008,19.9123001 C15.2273194,17.5813001 11.4663143,17.5813001 9.14702791,19.9123001 C6.8267465,22.2443001 6.8267465,26.0243001 9.14702791,28.3553001 L32.3806862,51.7063001 L9.14603293,75.0583001 C6.82575153,77.3893001 6.8267465,81.1713001 9.14702791,83.5023001" id="Path" fill="#7C8386"></path>
            <path d="M19.7882842,94.1973001 C17.4680028,91.8653001 17.4680028,88.0853001 19.7882842,85.7543001 L51.4235103,53.9593001 L83.0597314,85.7543001 C85.3780229,88.0853001 85.3780229,91.8653001 83.0597314,94.1973001 C80.73945,96.5283001 76.97745,96.5283001 74.6581636,94.1973001 L51.4255003,70.8463001 L28.189852,94.1983001 C25.8695706,96.5293001 22.1085656,96.5283001 19.7882842,94.1973001" id="Path" fill="#7C8386"></path>
            <path d="M93.7238721,19.8883001 C91.4045857,17.5563001 87.6425857,17.5563001 85.3232993,19.8883001 L53.6890681,51.6833001 L85.3232993,83.4783001 C87.6425857,85.8093001 91.4045857,85.8093001 93.7238721,83.4783001 C96.0431586,81.1473001 96.0431586,77.3663001 93.7238721,75.0353001 L70.4902138,51.6843001 L93.7248671,28.3323001 C96.0451485,26.0013001 96.0431586,22.2193001 93.7238721,19.8883001" id="Path" fill="#7C8386"></path>
            <path d="M185.288126,76.1464001 L185.288126,75.4894001 C182.672337,74.3944001 182.018639,72.9334001 180.856508,67.7504001 L171.049041,25.1134001 L170.251071,25.1134001 L153.036016,63.8814001 L135.528438,25.1134001 L134.802106,25.1134001 L125.431433,67.5314001 C124.34293,72.4964001 123.907131,74.4674001 120.999815,75.4894001 L120.999815,76.1464001 C123.252438,76.0004001 126.231393,76.0004001 129.426257,76.0004001 C130.879915,76.0004001 132.477845,76.0734001 133.857875,76.1464001 L133.857875,75.4894001 C132.332579,75.0514001 131.388348,74.3214001 131.388348,73.0794001 C131.388348,72.1314001 131.605252,70.9634001 131.752508,70.1604001 L136.981101,43.2934001 L152.817121,77.6794001 L153.543453,77.6794001 L168.580508,43.2934001 L174.174257,71.2554001 C174.24689,71.7664001 174.391162,72.7154001 174.391162,73.0794001 C174.391162,74.3944001 173.447925,75.1244001 171.994267,75.4894001 L171.994267,76.1464001 C174.027996,76.0734001 176.207986,76.0004001 178.386981,76.0004001 C180.420709,76.0004001 182.817604,76.0004001 185.288126,76.1464001 L185.288126,76.1464001 Z M216.980066,66.6554001 L216.325373,66.5824001 C215.381141,69.2844001 213.130508,70.5254001 207.609393,70.5254001 L203.106136,70.5254001 C198.601885,70.5254001 197.22086,70.5254001 197.22086,66.0714001 L197.22086,53.1484001 L205.937835,53.1484001 C211.168418,53.1484001 213.492679,54.2444001 214.146378,56.7994001 L214.727443,56.7994001 C214.655805,54.7554001 214.582177,52.4914001 214.582177,50.4474001 C214.582177,48.2574001 214.655805,45.8494001 214.727443,43.7304001 L214.146378,43.7304001 C213.202147,46.4324001 211.168418,47.5274001 205.937835,47.5274001 L197.22086,47.5274001 L197.22086,33.0724001 L205.575664,33.0724001 C211.313684,33.0724001 213.855845,33.0724001 215.45477,36.5034001 L216.180106,36.5034001 L216.180106,27.4504001 L186.32489,27.4504001 L186.32489,28.1074001 C189.376478,28.7644001 189.957543,31.3924001 189.957543,38.1824001 L189.957543,65.4144001 C189.957543,72.1314001 189.449111,74.8324001 186.32489,75.4894001 L186.32489,76.1464001 L215.81694,76.1464001 L216.980066,66.6554001 Z M263.273262,51.9084001 C263.273262,37.0864001 254.120488,27.4504001 237.194971,27.4504001 L220.197815,27.4504001 L220.197815,28.1804001 C223.175775,28.8374001 223.829473,31.5394001 223.829473,38.2554001 L223.829473,65.4874001 C223.829473,72.4964001 223.102147,74.7594001 220.197815,75.4894001 L220.197815,76.1464001 L237.63077,76.1464001 C253.756327,76.1464001 263.273262,66.9464001 263.273262,51.9084001 L263.273262,51.9084001 Z M255.791051,51.9814001 C255.791051,64.2464001 248.454106,70.5254001 238.720267,70.5254001 C231.166418,70.5254001 231.093785,68.8454001 231.093785,64.8304001 L231.093785,33.7294001 C233.200147,33.4364001 235.451775,33.0724001 237.559131,33.0724001 C248.599373,33.0724001 255.791051,40.2264001 255.791051,51.9814001 L255.791051,51.9814001 Z M278.838649,76.1464001 L278.838649,75.4894001 C276.006951,74.7594001 275.134358,72.7884001 275.134358,65.4874001 L275.134358,38.1824001 C275.134358,31.2464001 275.861684,28.7644001 278.838649,28.1074001 L278.838649,27.4504001 C276.369121,27.5234001 273.827956,27.5974001 271.575332,27.5974001 C269.322709,27.5974001 266.781543,27.5234001 264.239383,27.4504001 L264.239383,28.1074001 C267.217342,28.7644001 267.871041,31.3194001 267.871041,38.1824001 L267.871041,65.4874001 C267.871041,72.6424001 267.143714,74.7594001 264.239383,75.4894001 L264.239383,76.1464001 C266.490016,76.0734001 269.032177,76.0004001 271.720599,76.0004001 C274.118488,76.0004001 276.659654,76.0734001 278.838649,76.1464001 L278.838649,76.1464001 Z M275.861684,19.9304001 C275.861684,17.5944001 273.973222,15.6234001 271.575332,15.6234001 C269.177443,15.6234001 267.288981,17.5214001 267.288981,19.9304001 C267.288981,22.3394001 269.251071,24.2384001 271.575332,24.2384001 C273.899594,24.2384001 275.861684,22.3394001 275.861684,19.9304001 L275.861684,19.9304001 Z M316.99693,41.1754001 C316.99693,33.8014001 312.63894,29.0564001 305.085091,27.8894001 C302.759835,27.5234001 300.435574,27.4504001 298.401845,27.4504001 L282.347925,27.4504001 L282.347925,28.1804001 C285.325885,28.8374001 285.980579,31.5394001 285.980579,38.2554001 L285.980579,65.4874001 C285.980579,72.5694001 285.252257,74.7594001 282.347925,75.4894001 L282.347925,76.1464001 C284.599554,76.0734001 287.069081,76.0734001 289.394337,76.0734001 C291.209172,76.0734001 293.824961,76.1464001 296.875554,76.1464001 L296.875554,75.4894001 C294.043855,75.1244001 293.2429,72.7154001 293.2429,65.4874001 L293.2429,33.5104001 C294.551292,33.2184001 296.150217,33.0724001 298.401845,33.0724001 C305.592528,33.0724001 309.152549,36.0654001 309.152549,41.2494001 C309.152549,47.1624001 304.286126,50.0094001 299.635614,50.0094001 C298.837644,50.0094001 297.82078,49.9374001 296.875554,49.7174001 L296.294488,49.7914001 L298.110317,55.5584001 C298.837644,55.6304001 299.999775,55.8504001 301.016639,55.8504001 C309.588348,55.8504001 316.99693,50.3754001 316.99693,41.1754001 L316.99693,41.1754001 Z M368.301815,51.8354001 C368.301815,36.8694001 358.641604,26.2824001 343.241383,26.2824001 C327.768528,26.2824001 317.81679,36.7234001 317.81679,51.8354001 C317.81679,65.9984001 327.332729,77.3874001 343.314016,77.3874001 C359.295302,77.3874001 368.301815,66.1454001 368.301815,51.8354001 L368.301815,51.8354001 Z M360.819604,51.7624001 C360.819604,64.1734001 353.047855,71.5464001 343.241383,71.5464001 C332.489684,71.5464001 325.299001,64.1734001 325.299001,51.8354001 C325.299001,40.8834001 331.909614,32.1234001 343.16875,32.1234001 C354.210981,32.1234001 360.819604,40.2264001 360.819604,51.7624001 L360.819604,51.7624001 Z M395.999925,66.8754001 L395.417865,66.7294001 C393.965202,70.0144001 391.85884,70.5254001 387.864016,70.5254001 L383.94083,70.5254001 C378.565976,70.5254001 378.711242,70.0144001 378.711242,61.1074001 L378.711242,38.1824001 C378.711242,31.3924001 379.36494,28.7644001 382.197634,28.1074001 L382.197634,27.4504001 C379.654478,27.5234001 377.112317,27.5974001 375.078589,27.5974001 C372.972227,27.5974001 370.430066,27.5234001 367.815272,27.4504001 L367.815272,28.1074001 C370.793232,28.7644001 371.44693,31.4654001 371.44693,38.1824001 L371.44693,65.4874001 C371.44693,72.0584001 370.938498,74.9054001 367.815272,75.5634001 L367.815272,76.1464001 L394.910428,76.1464001 L395.999925,66.8754001 Z" id="Fill-6" fill="#0C1F60"></path>
            <path d="M125.343378,104.0654 C124.240945,104.0654 123.138513,103.8214 122.07986,103.4224 L121.88186,100.7634 L122.07986,100.7634 C122.851961,101.7834 124.219056,102.2924 125.343378,102.2924 C126.820915,102.2924 128.165126,101.3174 128.165126,99.6114001 C128.165126,98.2374001 127.2398,97.6614001 123.910614,95.7994001 C122.896734,95.2234001 122.10175,93.9164001 122.10175,92.5424001 C122.10175,90.1934001 123.976282,88.5534001 126.42392,88.5534001 C127.812905,88.5534001 128.804895,89.0414001 129.267559,89.0414001 C129.422775,89.0414001 129.532222,89.0194001 129.686443,88.9074001 L129.907327,88.9074001 L129.907327,91.6554001 L129.686443,91.6554001 C129.00389,90.7474001 127.878574,90.3264001 126.644805,90.3264001 C125.542373,90.3264001 124.262835,91.0134001 124.262835,92.3644001 C124.262835,95.2464001 130.436654,94.6254001 130.436654,99.6994001 C130.436654,102.3364 128.452674,104.0654 125.343378,104.0654" id="Fill-9" fill="#0C1F60"></path>
            <path d="M153.697077,103.6889 L153.697077,103.4889 C154.137851,103.3779 154.335851,103.1569 154.335851,102.6469 C154.335851,102.4029 154.225409,102.0709 154.137851,101.8489 L153.233419,99.5669001 L147.390926,99.5669001 L146.420826,101.8489 C146.288494,102.1379 146.178052,102.5359 146.178052,102.8239 C146.178052,103.1569 146.354163,103.4229 146.751158,103.4889 L146.751158,103.6889 C146.001941,103.6669 145.25173,103.6439 144.568183,103.6439 C143.995077,103.6439 143.400082,103.6669 142.804092,103.6889 L142.804092,103.4889 C143.532414,103.3779 143.775188,102.8019 144.237851,101.7389 L150.190786,88.1989001 L150.499228,88.1989001 L156.694936,102.1149 C157.026263,102.8469 157.422263,103.2899 157.996364,103.4889 L157.996364,103.6889 C157.422263,103.6669 156.7616,103.6439 156.166605,103.6439 C155.327841,103.6439 154.468183,103.6669 153.697077,103.6889 Z M150.366896,92.2319001 L148.0297,97.8599001 L152.616534,97.8599001 L150.366896,92.2319001 Z" id="Combined-Shape" fill="#0C1F60"></path>
            <path d="M177.684429,88.0434001 C176.05267,88.0434001 174.774127,87.1354001 174.553243,85.1634001 L175.611896,85.1634001 C175.898449,85.9824001 176.251665,86.7804001 177.684429,86.7804001 C179.029635,86.7804001 179.492298,86.0714001 179.778851,85.1634001 L180.815615,85.1634001 C180.639504,87.1134001 179.316188,88.0434001 177.684429,88.0434001 M178.279424,104.0654 C173.450811,104.0654 170.540509,100.5194 170.540509,96.6194001 C170.540509,91.9214001 173.517474,88.5534001 177.771987,88.5534001 C179.977846,88.5534001 181.145947,89.0414001 181.873273,89.0414001 C182.050379,89.0414001 182.160821,88.9744001 182.248379,88.9074001 L182.447374,88.9074001 L182.447374,91.6114001 L182.248379,91.6114001 C181.057394,90.7474001 179.668409,90.3264001 178.080429,90.3264001 C175.214901,90.3264001 172.812037,92.6974001 172.812037,96.4644001 C172.812037,99.2114001 174.707464,102.2924 178.433645,102.2924 C179.161967,102.2924 180.351957,102.0934 181.344941,101.6064 L181.344941,98.4374001 C181.344941,97.2624001 180.991725,96.5754001 180.219625,96.4424001 L180.219625,96.2654001 L183.548811,96.2654001 L183.548811,103.0014 C181.697163,103.7104 179.889293,104.0654 178.279424,104.0654" id="Fill-14" fill="#0C1F60"></path>
            <path d="M205.288216,103.6884 L197.063754,103.6884 L197.063754,103.5114 C198.011965,103.3124 198.166186,102.4474 198.166186,100.4534 L198.166186,92.1654001 C198.166186,90.1264001 197.968186,89.3074001 197.063754,89.1074001 L197.063754,88.9074001 C197.857743,88.9304001 198.629844,88.9524001 199.269613,88.9524001 C199.886497,88.9524001 200.657603,88.9304001 201.429703,88.9074001 L201.429703,89.1074001 C200.570045,89.3074001 200.37105,90.1054001 200.37105,92.1654001 L200.37105,99.1244001 C200.37105,101.8274 200.327271,101.9824 201.95903,101.9824 L203.150015,101.9824 C204.361894,101.9824 205.001663,101.8274 205.442437,100.8304 L205.619542,100.8744 L205.288216,103.6884 Z" id="Fill-17" fill="#0C1F60"></path>
            <path d="M220.787138,103.644 C219.971259,103.644 219.200154,103.666 218.516606,103.688 L218.516606,103.489 C219.398154,103.268 219.619038,102.625 219.619038,100.453 L219.619038,92.1650001 C219.619038,90.0820001 219.420043,89.3070001 218.516606,89.1070001 L218.516606,88.9080001 C219.288706,88.9300001 220.059812,88.9530001 220.74336,88.9530001 C221.426907,88.9530001 222.198013,88.9300001 222.948224,88.9080001 L222.948224,89.1070001 C222.044787,89.3070001 221.823902,90.0600001 221.823902,92.1650001 L221.823902,100.453 C221.823902,102.669 222.088566,103.268 222.948224,103.489 L222.948224,103.688 C222.286566,103.666 221.514465,103.644 220.787138,103.644" id="Fill-19" fill="#0C1F60"></path>
            <path d="M248.082384,103.7333 C246.693399,103.7333 246.186957,103.2893 245.150193,102.1593 L239.704695,96.1983001 L239.704695,100.4533 C239.704695,102.6693 239.946474,103.2673 240.785238,103.4893 L240.785238,103.6883 C240.079801,103.6663 239.32959,103.6443 238.646042,103.6443 C237.962494,103.6443 237.168504,103.6663 236.397399,103.6883 L236.397399,103.4893 C237.278947,103.2673 237.498836,102.6033 237.498836,100.4533 L237.498836,92.1653001 C237.498836,90.1273001 237.300836,89.3073001 236.397399,89.1073001 L236.397399,88.9073001 C237.168504,88.9303001 237.940605,88.9523001 238.602263,88.9523001 C239.284816,88.9523001 240.035027,88.9303001 240.785238,88.9073001 L240.785238,89.1073001 C239.924585,89.3073001 239.704695,90.0823001 239.704695,92.1653001 L239.704695,95.0683001 L244.775087,90.2153001 C244.952193,90.0383001 245.194967,89.8163001 245.194967,89.5503001 C245.194967,89.2623001 244.995972,89.1513001 244.709419,89.1073001 L244.709419,88.9073001 C245.194967,88.9303001 245.789962,88.9523001 246.252625,88.9523001 C247.574947,88.9523001 248.678374,88.9303001 249.471369,88.9073001 L249.471369,89.1073001 C248.457489,89.3293001 247.531168,90.0823001 246.098404,91.4563001 L241.886675,95.4673001 L246.892394,100.8523 C248.082384,102.1373 248.920153,102.9793 249.956916,103.4003 L249.956916,103.6003 C249.581811,103.6443 248.986816,103.7333 248.082384,103.7333" id="Fill-21" fill="#0C1F60"></path>
            <path d="M286.02595,104.0654 C281.197336,104.0654 278.287035,100.5194 278.287035,96.6194001 C278.287035,91.9214001 281.264,88.5534001 285.518512,88.5534001 C287.724372,88.5534001 288.892472,89.0414001 289.619799,89.0414001 C289.795909,89.0414001 289.906352,88.9744001 289.994904,88.9074001 L290.192904,88.9074001 L290.192904,91.6114001 L289.994904,91.6114001 C288.803919,90.7474001 287.414934,90.3264001 285.82795,90.3264001 C282.961427,90.3264001 280.557568,92.6974001 280.557568,96.4644001 C280.557568,99.2114001 282.45399,102.2924 286.180171,102.2924 C286.908492,102.2924 288.098482,102.0934 289.090472,101.6064 L289.090472,98.4374001 C289.090472,97.2624001 288.738251,96.5754001 287.966151,96.4424001 L287.966151,96.2654001 L291.295336,96.2654001 L291.295336,103.0014 C289.443688,103.7114 287.635819,104.0654 286.02595,104.0654" id="Fill-23" fill="#0C1F60"></path>
            <path d="M315.482181,103.8437 C314.225527,103.8437 313.872311,103.4667 313.166874,102.3817 L308.955145,95.8657001 L309.065588,95.7107001 C309.37403,95.7777001 309.683467,95.7997001 309.97002,95.7997001 C312.064442,95.7997001 313.188764,94.6477001 313.188764,93.1187001 C313.188764,91.6557001 312.152995,90.5477001 309.837688,90.5477001 C309.35214,90.5477001 308.845698,90.5477001 308.117377,90.6807001 L308.117377,100.4527 C308.117377,102.6247 308.360151,103.2677 309.220804,103.4897 L309.220804,103.6887 C308.492482,103.6667 307.699487,103.6437 306.993055,103.6437 C306.309507,103.6437 305.538402,103.6667 304.81008,103.6887 L304.81008,103.4897 C305.692623,103.2677 305.912512,102.5807 305.912512,100.4527 L305.912512,92.1657001 C305.912512,90.1267001 305.714512,89.3067001 304.81008,89.1077001 L304.81008,88.9077001 L310.212794,88.9077001 C313.73998,88.9077001 315.460291,90.5037001 315.460291,92.9417001 C315.460291,95.0017001 314.33597,96.4427001 312.196774,96.9517001 L315.70207,102.0937 C316.31995,103.0017 316.606502,103.3787 317.223387,103.5327 L317.223387,103.7337 C316.363728,103.8217 315.658291,103.8437 315.482181,103.8437" id="Fill-26" fill="#0C1F60"></path>
            <path d="M342.336254,92.1655001 L342.336254,97.8165001 C342.336254,98.9905001 342.314365,100.1215 341.806927,101.2515 C340.991048,103.0455 339.183179,104.0655 336.647983,104.0655 C334.398344,104.0655 332.524807,103.1125 331.598485,101.4725 C330.981601,100.3865 330.958716,99.3895001 330.958716,98.2595001 L330.958716,92.1655001 C330.958716,90.0825001 330.760716,89.3075001 329.857279,89.1075001 L329.857279,88.9075001 C330.628385,88.9305001 331.377601,88.9525001 332.084033,88.9525001 C332.722807,88.9525001 333.473018,88.9305001 334.267008,88.9075001 L334.267008,89.1075001 C333.361581,89.3075001 333.163581,90.1045001 333.163581,92.1655001 L333.163581,97.6615001 C333.163581,98.7025001 333.208355,99.5895001 333.428244,100.1875 C333.913792,101.4945 335.103782,102.2925 336.691762,102.2925 C337.992194,102.2925 339.072736,101.7165 339.623953,100.7855 C340.087611,100.0105 340.13139,99.0345001 340.13139,97.8825001 L340.13139,92.1655001 C340.13139,90.0385001 339.888616,89.3075001 339.028958,89.1075001 L339.028958,88.9075001 C339.822948,88.9305001 340.594053,88.9525001 341.277601,88.9525001 C341.91737,88.9525001 342.667581,88.9305001 343.438686,88.9075001 L343.438686,89.1075001 C342.557138,89.3075001 342.336254,90.0605001 342.336254,92.1655001" id="Fill-28" fill="#0C1F60"></path>
            <path d="M362.222817,103.6884 L356.887762,103.6884 L356.887762,103.4894 C357.769309,103.2674 357.989199,102.5804 357.989199,100.4534 L357.989199,92.1654001 C357.989199,90.1274001 357.791199,89.3074001 356.887762,89.1074001 L356.887762,88.9304001 L361.473601,88.9304001 C362.619812,88.9304001 363.567028,88.9524001 364.29535,89.1734001 C365.860445,89.6614001 366.786767,90.8794001 366.786767,92.4754001 C366.786767,94.0484001 366.014666,94.9804001 364.516234,95.5114001 C366.565882,96.1984001 367.602646,97.5054001 367.602646,99.3454001 C367.602646,102.2704 365.794777,103.6884 362.222817,103.6884 Z M361.428827,90.5034001 C361.142274,90.5034001 360.635832,90.5924001 360.194063,90.6364001 L360.194063,94.9804001 C360.547279,95.0024001 360.988053,95.0024001 361.363159,95.0024001 C363.060586,95.0024001 364.516234,94.2484001 364.516234,92.6304001 C364.516234,91.1024001 363.390917,90.5034001 361.428827,90.5034001 Z M361.583048,96.5754001 C361.054716,96.5754001 360.591058,96.6424001 360.194063,96.6864001 L360.194063,99.6334001 C360.194063,101.1624 360.083621,101.9824 361.69349,101.9824 C364.119239,101.9824 365.331118,101.1844 365.331118,99.3454001 C365.331118,97.5284001 364.09735,96.5754001 361.583048,96.5754001 Z" id="Combined-Shape" fill="#0C1F60"></path>
            <path d="M393.618752,92.1655001 L393.618752,97.8165001 C393.618752,98.9905001 393.596862,100.1215 393.089425,101.2515 C392.273545,103.0455 390.466671,104.0655 387.93048,104.0655 C385.680842,104.0655 383.807304,103.1125 382.880983,101.4725 C382.264098,100.3865 382.241214,99.3895001 382.241214,98.2595001 L382.241214,92.1655001 C382.241214,90.0825001 382.043214,89.3075001 381.139777,89.1075001 L381.139777,88.9075001 C381.910882,88.9305001 382.661093,88.9525001 383.36653,88.9525001 C384.005304,88.9525001 384.755515,88.9305001 385.549505,88.9075001 L385.549505,89.1075001 C384.645073,89.3075001 384.447073,90.1045001 384.447073,92.1655001 L384.447073,97.6615001 C384.447073,98.7025001 384.490852,99.5895001 384.710741,100.1875 C385.196289,101.4945 386.387274,102.2925 387.974259,102.2925 C389.275686,102.2925 390.356229,101.7165 390.90645,100.7855 C391.370108,100.0105 391.413887,99.0345001 391.413887,97.8825001 L391.413887,92.1655001 C391.413887,90.0385001 391.172108,89.3075001 390.311455,89.1075001 L390.311455,88.9075001 C391.105445,88.9305001 391.877545,88.9525001 392.561093,88.9525001 C393.199867,88.9525001 393.950078,88.9305001 394.721184,88.9075001 L394.721184,89.1075001 C393.839636,89.3075001 393.618752,90.0605001 393.618752,92.1655001" id="Fill-33" fill="#0C1F60"></path>
        </g>
    </g>
</svg>